<?xml version="1.0" encoding="utf-8"?>
<!-- Generator: Adobe Illustrator 17.0.0, SVG Export Plug-In . SVG Version: 6.00 Build 0)  -->
<!DOCTYPE svg PUBLIC "-//W3C//DTD SVG 1.1//EN" "http://www.w3.org/Graphics/SVG/1.1/DTD/svg11.dtd">
<svg version="1.1" id="Layer_1" xmlns="http://www.w3.org/2000/svg" xmlns:xlink="http://www.w3.org/1999/xlink" x="0px" y="0px"
	 width="487.5px" height="180px" viewBox="0 0 487.5 180" enable-background="new 0 0 487.5 180" xml:space="preserve">
<g>
	<polyline fill="none" stroke="#FFF200" stroke-width="3" stroke-miterlimit="10" points="55.821,86 63.821,86 73.821,96 81.821,96 
		91.821,86 99.821,86 109.821,96 117.821,96 127.821,86 136.057,86 146.057,96 154.057,96 	"/>
	<polyline fill="none" stroke="#1C75BC" stroke-width="3" stroke-miterlimit="10" points="55.821,96 63.821,96 73.821,86 81.821,86 
		91.821,96 99.821,96 109.821,86 117.821,86 127.821,96 136.057,96 146.057,86 154.057,86 	"/>
</g>
<g>
	<polyline fill="none" stroke="#FFF200" stroke-width="3" stroke-miterlimit="10" points="148.264,96 156.264,96 166.264,86 
		174.264,86 184.264,96 192.264,96 202.264,86 210.264,86 220.264,96 228.5,96 238.5,86 246.5,86 	"/>
	<polyline fill="none" stroke="#1C75BC" stroke-width="3" stroke-miterlimit="10" points="148.264,86 156.264,86 166.264,96 
		174.264,96 184.264,86 192.264,86 202.264,96 210.264,96 220.264,86 228.5,86 238.5,96 246.5,96 	"/>
</g>
<g>
	<polyline fill="none" stroke="#FFF200" stroke-width="3" stroke-miterlimit="10" points="240.5,86 248.5,86 258.5,96 266.5,96 
		276.5,86 284.5,86 294.5,96 302.5,96 312.5,86 320.736,86 330.736,96 338.736,96 	"/>
	<polyline fill="none" stroke="#1C75BC" stroke-width="3" stroke-miterlimit="10" points="240.5,96 248.5,96 258.5,86 266.5,86 
		276.5,96 284.5,96 294.5,86 302.5,86 312.5,96 320.736,96 330.736,86 338.736,86 	"/>
</g>
<g>
	<polyline fill="none" stroke="#FFF200" stroke-width="3" stroke-miterlimit="10" points="332.943,96 340.943,96 350.943,86 
		358.943,86 368.943,96 376.943,96 386.943,86 394.943,86 404.943,96 413.179,96 423.179,86 431.179,86 	"/>
	<polyline fill="none" stroke="#1C75BC" stroke-width="3" stroke-miterlimit="10" points="332.943,86 340.943,86 350.943,96 
		358.943,96 368.943,86 376.943,86 386.943,96 394.943,96 404.943,86 413.179,86 423.179,96 431.179,96 	"/>
</g>
<rect x="8" y="83.333" fill="none" stroke="#000000" stroke-miterlimit="10" width="47.821" height="16.333"/>
<text transform="matrix(1 0 0 1 11.6667 95)" font-family="'MyriadPro-Regular'" font-size="11">120 ohm</text>
<rect x="431.179" y="83.333" fill="none" stroke="#000000" stroke-miterlimit="10" width="47.821" height="16.333"/>
<text transform="matrix(1 0 0 1 434.8457 95)" font-family="'MyriadPro-Regular'" font-size="11">120 ohm</text>
<line fill="none" stroke="#1C75BC" stroke-width="3" stroke-miterlimit="10" x1="77.333" y1="86" x2="77.333" y2="48"/>
<line fill="none" stroke="#FFF200" stroke-width="3" stroke-miterlimit="10" x1="95" y1="86" x2="95" y2="48"/>
<line fill="none" stroke="#1C75BC" stroke-width="3" stroke-miterlimit="10" x1="171.333" y1="134" x2="171.333" y2="96"/>
<line fill="none" stroke="#FFF200" stroke-width="3" stroke-miterlimit="10" x1="189" y1="134" x2="189" y2="96"/>
<line fill="none" stroke="#1C75BC" stroke-width="3" stroke-miterlimit="10" x1="225.333" y1="86" x2="225.333" y2="48"/>
<line fill="none" stroke="#FFF200" stroke-width="3" stroke-miterlimit="10" x1="243" y1="86" x2="243" y2="48"/>
<line fill="none" stroke="#1C75BC" stroke-width="3" stroke-miterlimit="10" x1="317.07" y1="134" x2="317.07" y2="96"/>
<line fill="none" stroke="#FFF200" stroke-width="3" stroke-miterlimit="10" x1="334.736" y1="134" x2="334.736" y2="96"/>
<rect x="62.451" y="9.667" fill="none" stroke="#000000" stroke-miterlimit="10" width="47.821" height="38.333"/>
<text transform="matrix(1 0 0 1 76.187 25.3333)"><tspan x="0" y="0" font-family="'MyriadPro-Regular'" font-size="11">CAN</tspan><tspan x="-5.396" y="13.2" font-family="'MyriadPro-Regular'" font-size="11">Device</tspan></text>
<rect x="156.785" y="134" fill="none" stroke="#000000" stroke-miterlimit="10" width="47.821" height="38.333"/>
<text transform="matrix(1 0 0 1 170.5203 149.6667)"><tspan x="0" y="0" font-family="'MyriadPro-Regular'" font-size="11">CAN</tspan><tspan x="-5.396" y="13.2" font-family="'MyriadPro-Regular'" font-size="11">Device</tspan></text>
<rect x="210.451" y="9.667" fill="none" stroke="#000000" stroke-miterlimit="10" width="47.821" height="38.333"/>
<text transform="matrix(1 0 0 1 224.187 25.3333)"><tspan x="0" y="0" font-family="'MyriadPro-Regular'" font-size="11">CAN</tspan><tspan x="-5.396" y="13.2" font-family="'MyriadPro-Regular'" font-size="11">Device</tspan></text>
<rect x="302.118" y="134" fill="none" stroke="#000000" stroke-miterlimit="10" width="47.821" height="38.333"/>
<text transform="matrix(1 0 0 1 315.8537 149.6667)"><tspan x="0" y="0" font-family="'MyriadPro-Regular'" font-size="11">CAN</tspan><tspan x="-5.396" y="13.2" font-family="'MyriadPro-Regular'" font-size="11">Device</tspan></text>
</svg>
