<?xml version="1.0" encoding="utf-8"?>
<!-- Generator: Adobe Illustrator 17.0.0, SVG Export Plug-In . SVG Version: 6.00 Build 0)  -->
<!DOCTYPE svg PUBLIC "-//W3C//DTD SVG 1.1//EN" "http://www.w3.org/Graphics/SVG/1.1/DTD/svg11.dtd">
<svg version="1.1" id="Layer_1" xmlns="http://www.w3.org/2000/svg" xmlns:xlink="http://www.w3.org/1999/xlink" x="0px" y="0px"
	 width="85.333px" height="85px" viewBox="0 0 85.333 85" enable-background="new 0 0 85.333 85" xml:space="preserve">
<path fill="none" stroke="#EF4E3A" stroke-width="3" stroke-miterlimit="10" d="M82.617,74.319c0,4.481-3.633,8.115-8.115,8.115
	H10.864c-4.481,0-8.115-3.633-8.115-8.115V10.681c0-4.481,3.633-8.115,8.115-8.115h71.753V74.319z"/>
<g>
	<path fill="#EF4E3A" d="M19.589,36.585c2.182,0,5.173-2.29,5.173-4.809v-0.054c-1.145,1.387-2.627,2.047-3.557,2.047
		c-0.552,0-0.916-0.229-0.916-0.673c0-1.387,2.142-5.267,3.799-5.267c0.552,0,1.051,0.445,1.4,1.563
		c0.552-0.337,1.307-1.576,1.307-2.6c0-0.835-0.499-1.536-1.967-1.536c-3.785,0-7.49,5.361-7.49,8.648
		C17.339,35.817,18.336,36.585,19.589,36.585z"/>
	<path fill="#EF4E3A" d="M33.562,40.328c0.188,0,0.39,0,0.592-0.014c-1.145-0.795-1.536-2.169-1.536-3.758
		c0-2.182,0.741-4.742,1.293-6.641c0.108-0.35,0.202-0.687,0.283-0.997c-0.189-0.027-0.364-0.027-0.526-0.027
		c-1.953,0-2.303,1.496-2.303,1.496c-0.189,0.7-0.593,2.033-0.7,2.033c-1.872,0-2.196,0.701-3.058,2.492
		c0.08-0.108,1.684-0.377,2.573-0.431c-0.256,0.93-0.431,1.832-0.431,2.654C29.749,38.967,30.625,40.328,33.562,40.328z"/>
	<path fill="#EF4E3A" d="M24.294,34.912c0,1.011,1.293,1.846,2.195,1.846c1.347-6.143,7.773-8.218,7.773-9.995
		c0-1.051-2.142-1.657-3.179-1.657c0.041,0.108,0.054,0.229,0.054,0.35C31.137,27.76,24.294,32.178,24.294,34.912z"/>
	<path fill="#EF4E3A" d="M36.139,27.061c0,0.108-0.014,0.216-0.041,0.337c-0.768,2.277-2.842,6.318-2.842,7.732
		c0,0.768,0.808,1.455,1.617,1.455c0.054,0,0.121,0,0.175-0.013c0.027-0.498,0.997-3.489,2.236-5.752
		c0.148,2.964,0.404,5.671,2.748,5.671c0.148,0,0.297,0,0.458-0.027c1.603-4.014,2.505-6.377,3.024-7.807
		c1.248-0.766,3.186-1.231,4.483-1.231c1.037,0,1.401,0.35,1.401,0.795c0,1.589-2.667,1.872-2.667,2.99
		c0,0.485,0.377,0.916,0.377,0.916c0.162-0.041,0.296-0.067,0.431-0.067c0.673,0,1.051,0.525,1.051,1.051
		c0,0.526-0.377,1.051-1.186,1.051c-0.795,0-1.842-0.552-1.842-1.32c-0.593,0.875-0.795,1.603-0.795,2.128
		c0,1.185,1.451,1.684,2.515,1.684c1.657,0,3.758-1.213,3.758-3.017c0-0.849-0.458-1.765-1.536-2.533
		c1.347-0.673,2.519-1.644,2.519-3.125c0-1.859-2.088-2.681-4.391-2.681c-1.098,0-2.243,0.191-3.234,0.543
		c0.039-0.189,0.064-0.369,0.064-0.53c0-1.239-1.064-1.616-2.195-1.616c-0.418,0-0.835,0.04-1.212,0.121
		c0.498,0.485,0.7,1.266,0.7,2.168c0,2.492-1.468,5.954-1.994,7.018c-0.485-2.653,0.593-7.826-2.815-7.826
		c-0.552,0-1.226,0.134-2.048,0.444C34.9,25.62,36.139,25.957,36.139,27.061z"/>
	<path fill="#EF4E3A" d="M46.408,28.233c-0.526,0-1.199,0.189-1.657,0.189c-0.067,0-0.121,0.027-0.134,0.094
		c-0.552,1.886-2.142,5.281-2.411,6.304v0.014c0,1.253,1.172,1.805,2.169,1.805c0.243-1.791,2.842-6.641,2.842-7.732
		C47.216,28.382,46.866,28.233,46.408,28.233z"/>
	<path fill="#EF4E3A" d="M52.596,36.464c0.673,0,1.482-0.458,2.209-1.684c0.08,0.983,0.539,1.792,1.334,1.792
		c0.735,0,1.447-0.586,2.013-1.318c0.199,0.707,1.078,1.223,2.422,1.223c1.684,0,3.61-0.916,3.61-2.452
		c0-0.902-0.647-1.199-1.28-1.401c0.539-0.081,1.118-0.121,1.724-0.121c2.182,0,4.674,0.526,6.21,1.993
		c0.646-0.687,0.929-1.32,0.929-1.845c0-0.943-0.902-1.549-2.344-1.549c-3.354,0-5.859,0.39-7.651,0.943
		c-0.014-0.04-0.027-0.094-0.027-0.148c0-0.364,0.566-1.199,1.078-1.199c0.256,0,0.512,0.216,0.673,0.795
		c0.808-0.31,1.199-0.889,1.199-1.401c0-0.566-0.458-1.051-1.361-1.051c-1.765,0-4.028,1.468-4.028,3.165
		c0,0.31,0.135,0.552,0.35,0.741c-0.762,0.458-1.207,0.954-1.411,1.426c-0.295,0.217-0.604,0.393-0.829,0.393
		c-0.202,0-0.323-0.135-0.323-0.485c0-1.374,1.697-3.462,1.697-4.23c0-0.62-1.159-1.024-1.644-1.064
		c-0.108,0.673-1.159,2.788-1.724,3.529c-0.445,0.579-1.158,1.509-1.927,1.509c-0.121-0.067-0.148-0.162-0.148-0.283
		c0-0.768,1.59-2.829,1.59-3.745c0-0.62-1.024-1.024-1.792-1.024c-0.054,1.415-2.007,4.446-2.007,6.008
		C51.141,35.764,51.761,36.464,52.596,36.464z M60.48,33.366c0.876,0.282,1.913,0.35,1.913,0.673c0,0.404-0.647,0.687-1.253,0.687
		c-0.538,0-1.05-0.229-1.05-0.795C60.09,33.73,60.224,33.541,60.48,33.366z"/>
	<path fill="#EF4E3A" d="M26.225,42.408c1.016,0,2.31,0.092,3.096,0.301c0.37-0.601,0.554-1.202,0.554-1.756
		c0-1.455-1.225-2.564-3.027-2.564c-3.026,0-6.446,0.762-8.617,0.762c-0.601,0-1.179-0.092-1.779-0.462
		c-0.277,0.554-0.693,1.594-0.693,2.518c0,1.432,1.132,1.917,2.38,1.917c0.647,0,1.34-0.093,2.056-0.093
		c-1.502,4.159-4.597,10.281-4.597,12.175c0,1.733,1.548,2.495,3.003,2.541c2.033-5.059,3.766-10.58,6.33-15.271
		C25.208,42.431,25.67,42.408,26.225,42.408z"/>
	<path fill="#EF4E3A" d="M39.297,42.755c0.254,0,0.508,0.023,0.762,0.023c0.554-0.739,0.809-1.386,0.809-1.94
		c0-0.971-0.786-1.617-2.149-1.617c-2.934,0-6.284,2.426-8.571,6.099c-0.231-1.733-2.865-2.056-2.865-2.056
		c0.046,0.138,0.069,0.323,0.069,0.508c0,2.634-3.997,9.75-3.997,11.298c0,1.548,1.894,1.848,2.957,1.848
		c1.178-3.72,3.003-7.277,3.003-7.277C30.889,46.358,32.552,42.755,39.297,42.755z"/>
	<path fill="#EF4E3A" d="M47.933,44.672c-1.363,0-2.426,0.901-3.858,2.08c-0.093,0.069-0.208,0.138-0.301,0.231
		c0.301-0.554,0.439-1.04,0.439-1.432c0-1.456-1.733-1.987-2.911-2.033c-0.308,1.614-1.883,5.12-3.343,8.427
		c-0.938,0.83-2.681,2.085-3.47,2.085c-0.254,0-0.416-0.138-0.416-0.462c0-1.433,3.257-6.561,3.257-7.647
		c0-0.97-1.062-1.363-2.495-1.363c-0.162,0-0.324,0.023-0.485,0.023c-1.27,3.35-3.719,7.601-3.719,9.426
		c0,1.548,1.04,3.119,2.68,3.119c1.294,0,2.414-0.864,3.263-1.984c-0.748,1.79-1.278,3.241-1.278,3.878
		c0,1.479,1.964,2.287,3.05,2.287c0.023-2.218,1.548-4.851,2.356-6.769c0.508,1.178,1.132,2.333,2.472,2.333
		c3.419,0,7.208-5.961,7.208-9.541C50.382,45.781,49.688,44.672,47.933,44.672z M43.151,53.012c-0.439,0-0.762-0.485-0.762-1.733
		c0-1.363,2.356-3.396,3.465-3.396c0.393,0,0.555,0.277,0.555,0.693C46.408,49.778,44.305,53.012,43.151,53.012z"/>
	<path fill="#EF4E3A" d="M58.741,39.79c0-1.225-1.756-2.056-2.934-2.056c-0.162,0-0.324,0.023-0.462,0.046
		c0.047,0.092,0.07,0.231,0.07,0.37c0,2.541-5.614,11.99-5.614,15.548c0,1.732,1.132,3.35,2.842,3.35
		c0.324,0,0.67-0.046,1.039-0.186c-0.439-0.646-0.462-1.57-0.462-2.634C53.219,49.307,58.741,41.845,58.741,39.79z"/>
	<path fill="#EF4E3A" d="M68.858,42.593c-0.439,0-0.947,0.069-1.525,0.208c0.139,0.739,0.208,1.455,0.208,2.126
		c0,5.867-5.106,9.449-7.948,9.449c-1.085,0-1.825-0.508-1.825-1.64c0-2.357,2.38-4.828,3.489-4.828
		c0.323,0,0.531,0.231,0.531,0.762c0,0.739-0.762,1.779-1.57,1.779c-0.301,0-0.578-0.139-0.855-0.462
		c-0.254,0.116-0.808,0.878-0.808,1.548c0,0.855,0.577,1.247,1.386,1.247c1.895,0,5.06-2.195,5.06-5.798
		c0-1.456-0.855-2.611-2.98-2.611c-3.627,0-7.739,5.198-7.739,8.986c0,2.195,1.363,3.928,5.036,3.928
		c7.6,0,12.337-7.485,12.337-11.782C71.653,43.795,70.775,42.593,68.858,42.593z"/>
</g>
</svg>
