<?xml version="1.0" encoding="utf-8"?>
<!-- Generator: Adobe Illustrator 16.0.4, SVG Export Plug-In . SVG Version: 6.00 Build 0)  -->
<!DOCTYPE svg PUBLIC "-//W3C//DTD SVG 1.1//EN" "http://www.w3.org/Graphics/SVG/1.1/DTD/svg11.dtd">
<svg version="1.1" id="Layer_1" xmlns="http://www.w3.org/2000/svg" xmlns:xlink="http://www.w3.org/1999/xlink" x="0px" y="0px"
	 width="1593px" height="948px" viewBox="0 0 1593 948" enable-background="new 0 0 1593 948" xml:space="preserve">
<g opacity="0.35">
	<path fill="#D7D7D7" stroke="#D7D7D7" d="M-120-105l-3,1194l17-620L-120-105z"/>
	<path fill="#FFFFFF" stroke="#FFFFFF" d="M-120-105l14,574l52-381L-120-105z"/>
	<path fill="#FFFFFF" stroke="#FFFFFF" d="M-120-105l66,193L48-78L-120-105z"/>
	<path fill="#F7F7F7" stroke="#F7F7F7" d="M-120-105L48-78l649-41L-120-105z"/>
	<path fill="#FFFFFF" stroke="#FFFFFF" d="M48-78L-54,88l89,23L48-78z"/>
	<path fill="#FCFCFC" stroke="#FCFCFC" d="M48-78L35,111l169-51L48-78z"/>
	<path fill="#F9F9F9" stroke="#F9F9F9" d="M48-78L204,60l44-97L48-78z"/>
	<path fill="#F7F7F7" stroke="#F7F7F7" d="M48-78l200,41l71-13L48-78z"/>
	<path fill="#EFEFEF" stroke="#EFEFEF" d="M48-78l271,28l378-69L48-78z"/>
	<path fill="#F4F4F4" stroke="#F4F4F4" d="M248-37l-44,97L319-50L248-37z"/>
	<path fill="#F1F1F1" stroke="#F1F1F1" d="M319-50L204,60l210,64L319-50z"/>
	<path fill="#ECECEC" stroke="#ECECEC" d="M319-50l95,174l66-71L319-50z"/>
	<path fill="#E8E8E8" stroke="#E8E8E8" d="M319-50L480,53L581-69L319-50z"/>
	<path fill="#E3E3E3" stroke="#E3E3E3" d="M319-50l262-19l116-50L319-50z"/>
	<path fill="#DFDFDF" stroke="#DFDFDF" d="M581-69L480,53l239,45L581-69z"/>
	<path fill="#D8D8D8" stroke="#D8D8D8" d="M581-69L719,98l-22-217L581-69z"/>
	<path fill="#D0D0D0" stroke="#D0D0D0" d="M697-119l22,217l86-189L697-119z"/>
	<path fill="#BABABA" stroke="#BABABA" d="M697-119l108,28l639-13L697-119z"/>
	<path fill="#CACACA" stroke="#CACACA" d="M805-91L719,98l165-22L805-91z"/>
	<path fill="#C2C2C2" stroke="#C2C2C2" d="M805-91l79,167L994-30L805-91z"/>
	<path fill="#B9B9B9" stroke="#B9B9B9" d="M805-91l189,61l190-18L805-91z"/>
	<path fill="#ADADAD" stroke="#ADADAD" d="M805-91l379,43l260-56L805-91z"/>
	<path fill="#BDBDBD" stroke="#BDBDBD" d="M994-30L884,76l97-2L994-30z"/>
	<path fill="#B6B6B6" stroke="#B6B6B6" d="M994-30L981,74l142-24L994-30z"/>
	<path fill="#B1B1B1" stroke="#B1B1B1" d="M994-30l129,80l61-98L994-30z"/>
	<path fill="#A9A9A9" stroke="#A9A9A9" d="M1184-48l-61,98l131,9L1184-48z"/>
	<path fill="#A6A6A6" stroke="#A6A6A6" d="M1184-48l70,107l-26-99L1184-48z"/>
	<path fill="#9F9F9F" stroke="#9F9F9F" d="M1184-48l44,8l216-64L1184-48z"/>
	<path fill="#9C9C9C" stroke="#9C9C9C" d="M1228-40l26,99l190-163L1228-40z"/>
	<path fill="#939393" stroke="#939393" d="M1444-104L1254,59l216,20L1444-104z"/>
	<path fill="#888888" stroke="#888888" d="M1444-104l26,183l69-164L1444-104z"/>
	<path fill="#828282" stroke="#828282" d="M1539-85l-69,164l142,12L1539-85z"/>
	<path fill="#808080" stroke="#808080" d="M1539-85l73,176l81-140L1539-85z"/>
	<path fill="#808080" stroke="#808080" d="M1693-49l-81,140l116,18L1693-49z"/>
	<path fill="#F4F4F4" stroke="#F4F4F4" d="M-54,88l-52,381l41-48L-54,88z"/>
	<path fill="#FFFFFF" stroke="#FFFFFF" d="M-54,88l-11,333l47-244L-54,88z"/>
	<path fill="#FFFFFF" stroke="#FFFFFF" d="M-54,88l36,89l53-66L-54,88z"/>
	<path fill="#FFFFFF" stroke="#FFFFFF" d="M35,111l-53,66l55,29L35,111z"/>
	<path fill="#FBFBFB" stroke="#FBFBFB" d="M35,111l2,95l202-7L35,111z"/>
	<path fill="#F9F9F9" stroke="#F9F9F9" d="M35,111l204,88L204,60L35,111z"/>
	<path fill="#F3F3F3" stroke="#F3F3F3" d="M204,60l35,139l175-75L204,60z"/>
	<path fill="#EFEFEF" stroke="#EFEFEF" d="M414,124l-175,75l180,20L414,124z"/>
	<path fill="#E9E9E9" stroke="#E9E9E9" d="M414,124l5,95l61-166L414,124z"/>
	<path fill="#E8E8E8" stroke="#E8E8E8" d="M480,53l-61,166l69,64L480,53z"/>
	<path fill="#E2E2E2" stroke="#E2E2E2" d="M480,53l8,230l162-47L480,53z"/>
	<path fill="#DCDCDC" stroke="#DCDCDC" d="M480,53l170,183l69-138L480,53z"/>
	<path fill="#D1D1D1" stroke="#D1D1D1" d="M719,98l-69,138l187,31L719,98z"/>
	<path fill="#C9C9C9" stroke="#C9C9C9" d="M719,98l118,169l47-191L719,98z"/>
	<path fill="#C1C1C1" stroke="#C1C1C1" d="M884,76l-47,191l175-31L884,76z"/>
	<path fill="#BCBCBC" stroke="#BCBCBC" d="M884,76l128,160L981,74L884,76z"/>
	<path fill="#B6B6B6" stroke="#B6B6B6" d="M981,74l31,162l97-3L981,74z"/>
	<path fill="#B3B3B3" stroke="#B3B3B3" d="M981,74l128,159l14-183L981,74z"/>
	<path fill="#ACACAC" stroke="#ACACAC" d="M1123,50l-14,183l111-65L1123,50z"/>
	<path fill="#A8A8A8" stroke="#A8A8A8" d="M1123,50l97,118l34-109L1123,50z"/>
	<path fill="#9F9F9F" stroke="#9F9F9F" d="M1254,59l-34,109l159,83L1254,59z"/>
	<path fill="#959595" stroke="#959595" d="M1254,59l125,192l91-172L1254,59z"/>
	<path fill="#898989" stroke="#898989" d="M1470,79l-91,172l189-18L1470,79z"/>
	<path fill="#818181" stroke="#818181" d="M1470,79l98,154l44-142L1470,79z"/>
	<path fill="#808080" stroke="#808080" d="M1612,91l-44,142l167-66L1612,91z"/>
	<path fill="#808080" stroke="#808080" d="M1612,91l123,76l-7-58L1612,91z"/>
	<path fill="#FBFBFB" stroke="#FBFBFB" d="M-18,177l-47,244L37,206L-18,177z"/>
	<path fill="#F1F1F1" stroke="#F1F1F1" d="M37,206L-65,421l111,11L37,206z"/>
	<path fill="#F1F1F1" stroke="#F1F1F1" d="M37,206l9,226l181-109L37,206z"/>
	<path fill="#F8F8F8" stroke="#F8F8F8" d="M37,206l190,117l12-124L37,206z"/>
	<path fill="#F1F1F1" stroke="#F1F1F1" d="M239,199l-12,124l192-104L239,199z"/>
	<path fill="#E5E5E5" stroke="#E5E5E5" d="M419,219L227,323l129,91L419,219z"/>
	<path fill="#E2E2E2" stroke="#E2E2E2" d="M419,219l-63,195l132-131L419,219z"/>
	<path fill="#D9D9D9" stroke="#D9D9D9" d="M488,283L356,414l119-25L488,283z"/>
	<path fill="#DADADA" stroke="#DADADA" d="M488,283l-13,106l175-153L488,283z"/>
	<path fill="#CECECE" stroke="#CECECE" d="M650,236L475,389l255,26L650,236z"/>
	<path fill="#C8C8C8" stroke="#C8C8C8" d="M650,236l80,179l107-148L650,236z"/>
	<path fill="#B8B8B8" stroke="#B8B8B8" d="M837,267L730,415l104,13L837,267z"/>
	<path fill="#B6B6B6" stroke="#B6B6B6" d="M837,267l-3,161l107-84L837,267z"/>
	<path fill="#BABABA" stroke="#BABABA" d="M837,267l104,77l71-108L837,267z"/>
	<path fill="#ADADAD" stroke="#ADADAD" d="M1012,236l-71,108l193,3L1012,236z"/>
	<path fill="#ADADAD" stroke="#ADADAD" d="M1012,236l122,111l-25-114L1012,236z"/>
	<path fill="#A2A2A2" stroke="#A2A2A2" d="M1109,233l25,114l164-27L1109,233z"/>
	<path fill="#A7A7A7" stroke="#A7A7A7" d="M1109,233l189,87l-78-152L1109,233z"/>
	<path fill="#9C9C9C" stroke="#9C9C9C" d="M1220,168l78,152l81-69L1220,168z"/>
	<path fill="#8C8C8C" stroke="#8C8C8C" d="M1379,251l-81,69l100,57L1379,251z"/>
	<path fill="#868686" stroke="#868686" d="M1379,251l19,126l170-144L1379,251z"/>
	<path fill="#7A7A7A" stroke="#7A7A7A" d="M1568,233l-170,144l232-59L1568,233z"/>
	<path fill="#7F7F7F" stroke="#7F7F7F" d="M1568,233l62,85l105-151L1568,233z"/>
	<path fill="#777777" stroke="#777777" d="M1735,167l-105,151l101,104L1735,167z"/>
	<path fill="#666666" stroke="#666666" d="M1735,167l-4,255l30,219L1735,167z"/>
	<path fill="#E0E0E0" stroke="#E0E0E0" d="M-65,421l-41,48l152-37L-65,421z"/>
	<path fill="#D2D2D2" stroke="#D2D2D2" d="M46,432l-152,37l13,178L46,432z"/>
	<path fill="#D1D1D1" stroke="#D1D1D1" d="M46,432L-93,647l195-181L46,432z"/>
	<path fill="#E2E2E2" stroke="#E2E2E2" d="M46,432l56,34l125-143L46,432z"/>
	<path fill="#DADADA" stroke="#DADADA" d="M227,323L102,466l182,29L227,323z"/>
	<path fill="#D9D9D9" stroke="#D9D9D9" d="M227,323l57,172l72-81L227,323z"/>
	<path fill="#CBCBCB" stroke="#CBCBCB" d="M356,414l-72,81l115-3L356,414z"/>
	<path fill="#CDCDCD" stroke="#CDCDCD" d="M356,414l43,78l76-103L356,414z"/>
	<path fill="#C0C0C0" stroke="#C0C0C0" d="M475,389l-76,103l136,78L475,389z"/>
	<path fill="#B8B8B8" stroke="#B8B8B8" d="M475,389l60,181l167-71L475,389z"/>
	<path fill="#BCBCBC" stroke="#BCBCBC" d="M475,389l227,110l28-84L475,389z"/>
	<path fill="#AEAEAE" stroke="#AEAEAE" d="M730,415l-28,84l132-71L730,415z"/>
	<path fill="#A3A3A3" stroke="#A3A3A3" d="M834,428l-132,71l69,71L834,428z"/>
	<path fill="#999999" stroke="#999999" d="M834,428l-63,142l171-16L834,428z"/>
	<path fill="#A1A1A1" stroke="#A1A1A1" d="M834,428l108,126l-1-210L834,428z"/>
	<path fill="#939393" stroke="#939393" d="M941,344l1,210l139-22L941,344z"/>
	<path fill="#9C9C9C" stroke="#9C9C9C" d="M941,344l140,188l53-185L941,344z"/>
	<path fill="#828282" stroke="#828282" d="M1134,347l-53,185l222,52L1134,347z"/>
	<path fill="#888888" stroke="#888888" d="M1134,347l169,237l-5-264L1134,347z"/>
	<path fill="#727272" stroke="#727272" d="M1298,320l5,264l81-40L1298,320z"/>
	<path fill="#7C7C7C" stroke="#7C7C7C" d="M1298,320l86,224l14-167L1298,320z"/>
	<path fill="#656565" stroke="#656565" d="M1398,377l-14,167l230-50L1398,377z"/>
	<path fill="#6A6A6A" stroke="#6A6A6A" d="M1398,377l216,117l16-176L1398,377z"/>
	<path fill="#666666" stroke="#666666" d="M1630,318l-16,176l117-72L1630,318z"/>
	<path fill="#585858" stroke="#585858" d="M1731,422l-117,72l128,42L1731,422z"/>
	<path fill="#4F4F4F" stroke="#4F4F4F" d="M1731,422l11,114l19,105L1731,422z"/>
	<path fill="#939393" stroke="#939393" d="M-106,469l-17,620l16-116L-106,469z"/>
	<path fill="#B3B3B3" stroke="#B3B3B3" d="M-106,469l-1,504l14-326L-106,469z"/>
	<path fill="#C2C2C2" stroke="#C2C2C2" d="M102,466L-93,647l224,23L102,466z"/>
	<path fill="#C6C6C6" stroke="#C6C6C6" d="M102,466l29,204l153-175L102,466z"/>
	<path fill="#B5B5B5" stroke="#B5B5B5" d="M284,495L131,670l120,56L284,495z"/>
	<path fill="#B1B1B1" stroke="#B1B1B1" d="M284,495l-33,231l165-76L284,495z"/>
	<path fill="#BCBCBC" stroke="#BCBCBC" d="M284,495l132,155l-17-158L284,495z"/>
	<path fill="#B2B2B2" stroke="#B2B2B2" d="M399,492l17,158l119-80L399,492z"/>
	<path fill="#A3A3A3" stroke="#A3A3A3" d="M535,570l-119,80l139,24L535,570z"/>
	<path fill="#9D9D9D" stroke="#9D9D9D" d="M535,570l20,104l106-13L535,570z"/>
	<path fill="#A3A3A3" stroke="#A3A3A3" d="M535,570l126,91l41-162L535,570z"/>
	<path fill="#9B9B9B" stroke="#9B9B9B" d="M702,499l-41,162l110-91L702,499z"/>
	<path fill="#8A8A8A" stroke="#8A8A8A" d="M771,570l-110,91l193,60L771,570z"/>
	<path fill="#878787" stroke="#878787" d="M771,570l83,151l88-167L771,570z"/>
	<path fill="#7E7E7E" stroke="#7E7E7E" d="M942,554l-88,167l140-97L942,554z"/>
	<path fill="#818181" stroke="#818181" d="M942,554l52,70l87-92L942,554z"/>
	<path fill="#757575" stroke="#757575" d="M1081,532l-87,92l179,36L1081,532z"/>
	<path fill="#6F6F6F" stroke="#6F6F6F" d="M1081,532l92,128l130-76L1081,532z"/>
	<path fill="#5C5C5C" stroke="#5C5C5C" d="M1303,584l-130,76l137,62L1303,584z"/>
	<path fill="#505050" stroke="#505050" d="M1303,584l7,138l165-47L1303,584z"/>
	<path fill="#565656" stroke="#565656" d="M1303,584l172,91l-91-131L1303,584z"/>
	<path fill="#505050" stroke="#505050" d="M1384,544l91,131l139-181L1384,544z"/>
	<path fill="#414141" stroke="#414141" d="M1614,494l-139,181l63,31L1614,494z"/>
	<path fill="#414141" stroke="#414141" d="M1614,494l-76,212l223-65L1614,494z"/>
	<path fill="#4B4B4B" stroke="#4B4B4B" d="M1614,494l147,147l-19-105L1614,494z"/>
	<path fill="#999999" stroke="#999999" d="M-93,647l-14,326l48-149L-93,647z"/>
	<path fill="#B0B0B0" stroke="#B0B0B0" d="M-93,647l34,177l190-154L-93,647z"/>
	<path fill="#9E9E9E" stroke="#9E9E9E" d="M131,670L-59,824l182,24L131,670z"/>
	<path fill="#A2A2A2" stroke="#A2A2A2" d="M131,670l-8,178l128-122L131,670z"/>
	<path fill="#929292" stroke="#929292" d="M251,726L123,848l70,25L251,726z"/>
	<path fill="#8B8B8B" stroke="#8B8B8B" d="M251,726l-58,147l228-8L251,726z"/>
	<path fill="#989898" stroke="#989898" d="M251,726l170,139l-5-215L251,726z"/>
	<path fill="#8E8E8E" stroke="#8E8E8E" d="M416,650l5,215l110-87L416,650z"/>
	<path fill="#989898" stroke="#989898" d="M416,650l115,128l24-104L416,650z"/>
	<path fill="#929292" stroke="#929292" d="M555,674l-24,104l130-117L555,674z"/>
	<path fill="#808080" stroke="#808080" d="M661,661L531,778l125,98L661,661z"/>
	<path fill="#747474" stroke="#747474" d="M661,661l-5,215l111-42L661,661z"/>
	<path fill="#797979" stroke="#797979" d="M661,661l106,173l87-113L661,661z"/>
	<path fill="#686868" stroke="#686868" d="M854,721l-87,113l186-63L854,721z"/>
	<path fill="#717171" stroke="#717171" d="M854,721l99,50l41-147L854,721z"/>
	<path fill="#6C6C6C" stroke="#6C6C6C" d="M994,624l-41,147l220-111L994,624z"/>
	<path fill="#5A5A5A" stroke="#5A5A5A" d="M1173,660L953,771l226,38L1173,660z"/>
	<path fill="#535353" stroke="#535353" d="M1173,660l6,149l131-87L1173,660z"/>
	<path fill="#414141" stroke="#414141" d="M1310,722l-131,87l140,13L1310,722z"/>
	<path fill="#343434" stroke="#343434" d="M1310,722l9,100l141,15L1310,722z"/>
	<path fill="#3A3A3A" stroke="#3A3A3A" d="M1310,722l150,115l15-162L1310,722z"/>
	<path fill="#323232" stroke="#323232" d="M1475,675l-15,162l78-131L1475,675z"/>
	<path fill="#212121" stroke="#212121" d="M1538,706l-78,131l167-9L1538,706z"/>
	<path fill="#2E2E2E" stroke="#2E2E2E" d="M1538,706l89,122l134-187L1538,706z"/>
	<path fill="#272727" stroke="#272727" d="M1761,641l-134,187l138-28L1761,641z"/>
	<path fill="#818181" stroke="#818181" d="M-59,824l-48,149l191-8L-59,824z"/>
	<path fill="#888888" stroke="#888888" d="M-59,824L84,965l39-117L-59,824z"/>
	<path fill="#828282" stroke="#828282" d="M123,848L84,965l109-92L123,848z"/>
	<path fill="#797979" stroke="#797979" d="M193,873L84,965l166,6L193,873z"/>
	<path fill="#797979" stroke="#797979" d="M193,873l57,98l171-106L193,873z"/>
	<path fill="#707070" stroke="#707070" d="M421,865L250,971l98,41L421,865z"/>
	<path fill="#6A6A6A" stroke="#6A6A6A" d="M421,865l-73,147l182-93L421,865z"/>
	<path fill="#777777" stroke="#777777" d="M421,865l109,54l1-141L421,865z"/>
	<path fill="#707070" stroke="#707070" d="M531,778l-1,141l126-43L531,778z"/>
	<path fill="#5B5B5B" stroke="#5B5B5B" d="M656,876l-126,43l178,79L656,876z"/>
	<path fill="#595959" stroke="#595959" d="M656,876l52,122l59-164L656,876z"/>
	<path fill="#4E4E4E" stroke="#4E4E4E" d="M767,834l-59,164l136-25L767,834z"/>
	<path fill="#555555" stroke="#555555" d="M767,834l77,139l109-202L767,834z"/>
	<path fill="#424242" stroke="#424242" d="M953,771L844,973l127,36L953,771z"/>
	<path fill="#383838" stroke="#383838" d="M953,771l18,238l169-19L953,771z"/>
	<path fill="#424242" stroke="#424242" d="M953,771l187,219l39-181L953,771z"/>
	<path fill="#292929" stroke="#292929" d="M1179,809l-39,181l184-28L1179,809z"/>
	<path fill="#2E2E2E" stroke="#2E2E2E" d="M1179,809l145,153l-5-140L1179,809z"/>
	<path fill="#1A1A1A" stroke="#1A1A1A" d="M1319,822l5,140l99-9L1319,822z"/>
	<path fill="#1E1E1E" stroke="#1E1E1E" d="M1319,822l104,131l37-116L1319,822z"/>
	<path fill="#0D0D0D" stroke="#0D0D0D" d="M1460,837l-37,116l120-5L1460,837z"/>
	<path fill="#0E0E0E" stroke="#0E0E0E" d="M1460,837l83,111l84-120L1460,837z"/>
	<path fill="#030303" stroke="#030303" d="M1627,828l-84,120l198,16L1627,828z"/>
	<path fill="#0E0E0E" stroke="#0E0E0E" d="M1627,828l114,136l24-164L1627,828z"/>
	<path fill="#808080" stroke="#808080" d="M-107,973l-16,116l180-23L-107,973z"/>
	<path fill="#7F7F7F" stroke="#7F7F7F" d="M-107,973l164,93l27-101L-107,973z"/>
	<path fill="#7B7B7B" stroke="#7B7B7B" d="M84,965l-27,101l157,68L84,965z"/>
	<path fill="#797979" stroke="#797979" d="M84,965l130,169l36-163L84,965z"/>
	<path fill="#747474" stroke="#747474" d="M250,971l-36,163l123-69L250,971z"/>
	<path fill="#727272" stroke="#727272" d="M250,971l87,94l11-53L250,971z"/>
	<path fill="#6D6D6D" stroke="#6D6D6D" d="M348,1012l-11,53l181,93L348,1012z"/>
	<path fill="#686868" stroke="#686868" d="M348,1012l170,146l12-239L348,1012z"/>
	<path fill="#606060" stroke="#606060" d="M530,919l-12,239l190-160L530,919z"/>
	<path fill="#5A5A5A" stroke="#5A5A5A" d="M708,998l-190,160l191-2L708,998z"/>
	<path fill="#4F4F4F" stroke="#4F4F4F" d="M708,998l1,158l148-29L708,998z"/>
	<path fill="#4B4B4B" stroke="#4B4B4B" d="M708,998l149,129l-13-154L708,998z"/>
	<path fill="#434343" stroke="#434343" d="M844,973l13,154l114-118L844,973z"/>
	<path fill="#3F3F3F" stroke="#3F3F3F" d="M971,1009l-114,118l123-21L971,1009z"/>
	<path fill="#383838" stroke="#383838" d="M971,1009l9,97l127-12L971,1009z"/>
	<path fill="#333333" stroke="#333333" d="M971,1009l136,85l33-104L971,1009z"/>
	<path fill="#2C2C2C" stroke="#2C2C2C" d="M1140,990l-33,104l142,3L1140,990z"/>
	<path fill="#242424" stroke="#242424" d="M1140,990l109,107l75-135L1140,990z"/>
	<path fill="#191919" stroke="#191919" d="M1324,962l-75,135l189,80L1324,962z"/>
	<path fill="#131313" stroke="#131313" d="M1324,962l114,215l-15-224L1324,962z"/>
	<path fill="#0A0A0A" stroke="#0A0A0A" d="M1423,953l15,224l107-106L1423,953z"/>
	<path fill="#060606" stroke="#060606" d="M1423,953l122,118l-2-123L1423,953z"/>
	<path stroke="#000000" d="M1543,948l2,123l196-107L1543,948z"/>
	<path stroke="#000000" d="M1741,964l-196,107l120,83L1741,964z"/>
	<path fill="#7E7E7E" stroke="#7E7E7E" d="M-123,1089l337,45l-157-68L-123,1089z"/>
	<path fill="#6F6F6F" stroke="#6F6F6F" d="M214,1134l304,24l-181-93L214,1134z"/>
	<path fill="#434343" stroke="#434343" d="M518,1158l920,19l-729-21L518,1158z"/>
	<path fill="#393939" stroke="#393939" d="M709,1156l729,21l-581-50L709,1156z"/>
	<path fill="#323232" stroke="#323232" d="M857,1127l581,50l-458-71L857,1127z"/>
	<path fill="#2B2B2B" stroke="#2B2B2B" d="M980,1106l458,71l-331-83L980,1106z"/>
	<path fill="#212121" stroke="#212121" d="M1107,1094l331,83l-189-80L1107,1094z"/>
	<path fill="#010101" stroke="#010101" d="M1438,1177l227-23l-120-83L1438,1177z"/>
</g>
</svg>
